<?xml version="1.0" encoding="UTF-8"?>
<svg id="Layer_1" data-name="Layer 1" xmlns="http://www.w3.org/2000/svg" viewBox="0 0 1037 681.5">
  <defs>
    <style>
      .cls-1 {
        fill: #ecae48;
        stroke: #ebae48;
        stroke-miterlimit: 10;
        stroke-width: .25px;
      }

      .cls-2 {
        fill: #194f69;
        stroke-width: 0px;
      }
    </style>
  </defs>
  <g>
    <path class="cls-2" d="M182.12,114.24h-43.63v132.33h-38.78V114.24h-43.63v-37.32h126.03v37.32Z"/>
    <path class="cls-2" d="M281.49,190.82h-18.42v55.74h-38.78V76.91h67.86c32.23,0,58.17,25.93,58.17,58.17,0,20.84-12.6,39.75-31.27,49.2l36.11,62.29h-41.69l-31.99-55.74ZM263.07,156.89h29.08c10.66,0,19.39-9.45,19.39-21.81s-8.73-21.81-19.39-21.81h-29.08v43.63Z"/>
    <path class="cls-2" d="M396.13,191.79v-114.88h38.78v111.49c0,12.85,6.06,23.75,26.66,23.75s26.66-10.91,26.66-23.75v-111.49h38.78v114.88c0,36.35-28.11,58.17-65.44,58.17s-65.44-21.81-65.44-58.17Z"/>
    <path class="cls-2" d="M571.6,208.03l33.45-19.39c6.06,14.06,16.48,23.51,35.63,23.51s23.02-7.27,23.02-13.81c0-10.42-9.69-14.54-35.14-21.57-25.21-7.03-49.93-19.15-49.93-51.62s27.63-51.62,56.96-51.62,49.68,13.33,62.05,38.29l-32.72,19.15c-5.82-12.12-13.81-19.63-29.33-19.63-12.12,0-18.18,6.06-18.18,12.85,0,7.76,4.12,13.09,30.54,21.09,25.69,7.76,54.53,16.72,54.53,52.59,0,32.72-26.18,52.11-63.01,52.11s-58.41-16.97-67.86-41.93Z"/>
    <path class="cls-2" d="M854.92,114.24h-43.63v132.33h-38.78V114.24h-43.63v-37.32h126.03v37.32Z"/>
    <path class="cls-1" d="M970.59,198.23h-27.62v27.62h-24.17v-27.62h-27.62v-24.17h27.62v-27.62h24.17v27.62h27.62v24.17Z"/>
    <path class="cls-2" d="M59.73,430l33.45-19.39c6.06,14.06,16.48,23.51,35.63,23.51s23.02-7.27,23.02-13.81c0-10.42-9.69-14.54-35.14-21.57-25.21-7.03-49.93-19.15-49.93-51.62s27.63-51.62,56.96-51.62,49.68,13.33,62.05,38.29l-32.72,19.15c-5.82-12.12-13.81-19.63-29.33-19.63-12.12,0-18.18,6.06-18.18,12.85,0,7.76,4.12,13.09,30.54,21.09,25.69,7.76,54.53,16.72,54.53,52.59,0,32.72-26.18,52.11-63.01,52.11s-58.41-16.97-67.86-41.93Z"/>
    <path class="cls-2" d="M332.14,441.87h-63.01l-8.48,26.66h-42.41l57.68-169.65h49.44l57.68,169.65h-42.41l-8.48-26.66ZM320.51,405.52l-19.87-62.29-19.87,62.29h39.75Z"/>
    <path class="cls-2" d="M461.57,336.2v32.72h63.01v37.32h-63.01v62.29h-38.78v-169.65h103v37.32h-64.23Z"/>
    <path class="cls-2" d="M680.66,431.21v37.32h-106.64v-169.65h105.43v37.32h-66.65v28.11h60.59v36.84h-60.59v30.05h67.86Z"/>
    <path class="cls-2" d="M841.59,336.2h-43.63v132.33h-38.78v-132.33h-43.63v-37.32h126.03v37.32Z"/>
    <path class="cls-2" d="M964.95,403.34v65.2h-38.78v-65.2l-56.96-104.46h44.11l32.23,65.44,32.23-65.44h44.11l-56.96,104.46Z"/>
  </g>
  <g>
    <path class="cls-2" d="M90.08,545.34v15.1h29.09v17.23h-29.09v28.75h-17.9v-78.31h47.55v17.23h-29.65Z"/>
    <path class="cls-2" d="M154.96,567.26c0-23.05,18.24-40.72,40.72-40.72s40.72,17.68,40.72,40.72-18.23,40.72-40.72,40.72-40.72-17.68-40.72-40.72ZM218.51,567.26c0-13.98-10.07-23.27-22.82-23.27s-22.82,9.28-22.82,23.27,10.07,23.27,22.82,23.27,22.82-9.29,22.82-23.27Z"/>
    <path class="cls-2" d="M273.32,581.13v-53.03h17.9v51.46c0,5.93,2.8,10.96,12.31,10.96s12.31-5.03,12.31-10.96v-51.46h17.9v53.03c0,16.78-12.98,26.85-30.21,26.85s-30.2-10.07-30.2-26.85Z"/>
    <path class="cls-2" d="M436.09,528.11v78.31h-13.42l-30.21-42.51v42.51h-17.9v-78.31h13.43l30.2,42.51v-42.51h17.9Z"/>
    <path class="cls-2" d="M546.83,567.26c0,22.15-16.45,39.15-38.04,39.15h-31.32v-78.31h31.32c21.59,0,38.04,17,38.04,39.15ZM529.6,567.26c0-13.42-8.5-21.93-20.81-21.93h-13.42v43.85h13.42c12.31,0,20.81-8.5,20.81-21.93Z"/>
    <path class="cls-2" d="M627.93,594.11h-29.09l-3.92,12.31h-19.58l26.63-78.31h22.82l26.63,78.31h-19.58l-3.92-12.31ZM622.56,577.33l-9.17-28.75-9.17,28.75h18.35Z"/>
    <path class="cls-2" d="M733.09,545.34h-20.14v61.08h-17.9v-61.08h-20.14v-17.23h58.17v17.23Z"/>
    <path class="cls-2" d="M786.78,528.11v78.31h-17.9v-78.31h17.9Z"/>
    <path class="cls-2" d="M824.81,567.26c0-23.05,18.24-40.72,40.72-40.72s40.72,17.68,40.72,40.72-18.23,40.72-40.72,40.72-40.72-17.68-40.72-40.72ZM888.36,567.26c0-13.98-10.07-23.27-22.82-23.27s-22.82,9.28-22.82,23.27,10.07,23.27,22.82,23.27,22.82-9.29,22.82-23.27Z"/>
    <path class="cls-2" d="M1005.82,528.11v78.31h-13.42l-30.2-42.51v42.51h-17.9v-78.31h13.42l30.21,42.51v-42.51h17.9Z"/>
  </g>
</svg>