<?xml version="1.0" encoding="UTF-8"?>
<svg id="Layer_1" data-name="Layer 1" xmlns="http://www.w3.org/2000/svg" viewBox="0 0 1548 681.5">
  <defs>
    <style>
      .cls-1 {
        fill: #ecae48;
        stroke: #ebae48;
      }

      .cls-1, .cls-2 {
        stroke-miterlimit: 10;
        stroke-width: .25px;
      }

      .cls-2 {
        stroke: #195069;
      }

      .cls-2, .cls-3 {
        fill: #194f69;
      }

      .cls-3 {
        stroke-width: 0px;
      }
    </style>
  </defs>
  <g>
    <path class="cls-2" d="M251.93,488.14h98.93c-29.55,27.47-56.6,58.02-87.85,83.39-27.03,21.95-65.16,16.85-88.7-7.24-23.79-24.33-28.45-62.42-5.44-88.53,24.01-27.25,52.85-50.23,83.06-78.32v90.69Z"/>
    <path class="cls-1" d="M152.65,292.71h98.93c-29.55-27.47-56.6-58.02-87.85-83.39-27.03-21.95-65.16-16.85-88.7,7.24-23.79,24.33-28.45,62.42-5.44,88.53,24.01,27.25,52.85,50.23,83.06,78.32v-90.69Z"/>
    <g>
      <path class="cls-3" d="M700.01,133.48h-39.96v121.22h-35.52v-121.22h-39.96v-34.19h115.45v34.19Z"/>
      <path class="cls-3" d="M791.03,203.64h-16.87v51.06h-35.52V99.29h62.16c29.53,0,53.28,23.76,53.28,53.28,0,19.09-11.54,36.41-28.64,45.07l33.08,57.06h-38.19l-29.31-51.06ZM774.16,172.56h26.64c9.77,0,17.76-8.66,17.76-19.98s-7.99-19.98-17.76-19.98h-26.64v39.96Z"/>
      <path class="cls-3" d="M896.04,204.53v-105.24h35.52v102.13c0,11.77,5.55,21.76,24.42,21.76s24.42-9.99,24.42-21.76v-102.13h35.52v105.24c0,33.3-25.75,53.28-59.94,53.28s-59.94-19.98-59.94-53.28Z"/>
      <path class="cls-3" d="M1056.78,219.4l30.64-17.76c5.55,12.88,15.1,21.54,32.64,21.54s21.09-6.66,21.09-12.65c0-9.55-8.88-13.32-32.19-19.76-23.09-6.44-45.74-17.54-45.74-47.29s25.31-47.29,52.17-47.29,45.51,12.21,56.84,35.08l-29.97,17.54c-5.33-11.1-12.65-17.98-26.86-17.98-11.1,0-16.65,5.55-16.65,11.77,0,7.1,3.77,11.99,27.97,19.32,23.53,7.1,49.95,15.32,49.95,48.18,0,29.97-23.98,47.73-57.72,47.73s-53.51-15.54-62.16-38.41Z"/>
      <path class="cls-3" d="M1316.32,133.48h-39.96v121.22h-35.52v-121.22h-39.96v-34.19h115.45v34.19Z"/>
      <path class="cls-1" d="M1422.28,210.42h-25.3v25.3h-22.14v-25.3h-25.3v-22.14h25.3v-25.3h22.14v25.3h25.3v22.14Z"/>
      <path class="cls-3" d="M587.89,422.73l30.64-17.76c5.55,12.88,15.1,21.54,32.64,21.54s21.09-6.66,21.09-12.65c0-9.55-8.88-13.32-32.19-19.76-23.09-6.44-45.74-17.54-45.74-47.29s25.31-47.29,52.17-47.29,45.51,12.21,56.84,35.08l-29.97,17.54c-5.33-11.1-12.65-17.98-26.86-17.98-11.1,0-16.65,5.55-16.65,11.77,0,7.1,3.77,11.99,27.97,19.32,23.53,7.1,49.95,15.32,49.95,48.18,0,29.97-23.98,47.73-57.72,47.73s-53.51-15.54-62.16-38.41Z"/>
      <path class="cls-3" d="M837.43,433.61h-57.72l-7.77,24.42h-38.85l52.84-155.41h45.29l52.84,155.41h-38.85l-7.77-24.42ZM826.78,400.31l-18.21-57.06-18.21,57.06h36.41Z"/>
      <path class="cls-3" d="M955.99,336.81v29.97h57.72v34.19h-57.72v57.06h-35.52v-155.41h94.36v34.19h-58.83Z"/>
      <path class="cls-3" d="M1156.69,423.84v34.19h-97.69v-155.41h96.58v34.19h-61.05v25.75h55.5v33.75h-55.5v27.53h62.16Z"/>
      <path class="cls-3" d="M1304.1,336.81h-39.96v121.22h-35.52v-121.22h-39.96v-34.19h115.45v34.19Z"/>
      <path class="cls-3" d="M1417.11,398.31v59.72h-35.52v-59.72l-52.17-95.69h40.41l29.53,59.94,29.53-59.94h40.41l-52.17,95.69Z"/>
    </g>
    <g>
      <path class="cls-3" d="M607.12,528.39v13.83h26.64v15.78h-26.64v26.34h-16.4v-71.73h43.55v15.78h-27.16Z"/>
      <path class="cls-3" d="M666.55,548.48c0-21.11,16.7-37.3,37.3-37.3s37.3,16.19,37.3,37.3-16.7,37.3-37.3,37.3-37.3-16.19-37.3-37.3ZM724.76,548.48c0-12.81-9.22-21.32-20.91-21.32s-20.91,8.51-20.91,21.32,9.22,21.32,20.91,21.32,20.91-8.51,20.91-21.32Z"/>
      <path class="cls-3" d="M774.97,561.18v-48.57h16.4v47.14c0,5.43,2.56,10.04,11.27,10.04s11.27-4.61,11.27-10.04v-47.14h16.4v48.57c0,15.37-11.89,24.59-27.67,24.59s-27.67-9.22-27.67-24.59Z"/>
      <path class="cls-3" d="M924.07,512.61v71.73h-12.3l-27.67-38.94v38.94h-16.4v-71.73h12.3l27.67,38.94v-38.94h16.4Z"/>
      <path class="cls-3" d="M1025.51,548.48c0,20.29-15.06,35.87-34.84,35.87h-28.69v-71.73h28.69c19.78,0,34.84,15.58,34.84,35.87ZM1009.73,548.48c0-12.3-7.79-20.09-19.06-20.09h-12.3v40.17h12.3c11.27,0,19.06-7.79,19.06-20.09Z"/>
      <path class="cls-3" d="M1099.81,573.07h-26.64l-3.59,11.27h-17.93l24.39-71.73h20.91l24.39,71.73h-17.93l-3.59-11.27ZM1094.89,557.7l-8.4-26.34-8.4,26.34h16.81Z"/>
      <path class="cls-3" d="M1196.13,528.39h-18.45v55.95h-16.4v-55.95h-18.45v-15.78h53.29v15.78Z"/>
      <path class="cls-3" d="M1245.32,512.61v71.73h-16.4v-71.73h16.4Z"/>
      <path class="cls-3" d="M1280.16,548.48c0-21.11,16.7-37.3,37.3-37.3s37.3,16.19,37.3,37.3-16.7,37.3-37.3,37.3-37.3-16.19-37.3-37.3ZM1338.36,548.48c0-12.81-9.22-21.32-20.91-21.32s-20.91,8.51-20.91,21.32,9.22,21.32,20.91,21.32,20.91-8.51,20.91-21.32Z"/>
      <path class="cls-3" d="M1445.96,512.61v71.73h-12.3l-27.67-38.94v38.94h-16.4v-71.73h12.3l27.67,38.94v-38.94h16.4Z"/>
    </g>
  </g>
  <path class="cls-1" d="M450.61,385.3h-98.93c29.55,27.47,56.6,58.02,87.85,83.39,27.03,21.95,65.16,16.85,88.7-7.24,23.79-24.33,28.45-62.42,5.44-88.53-24.01-27.25-52.85-50.23-83.06-78.32v90.69Z"/>
  <path class="cls-2" d="M350.61,195.3h-98.93c29.55-27.47,56.6-58.02,87.85-83.39,27.03-21.95,65.16-16.85,88.7,7.24,23.79,24.33,28.45,62.42,5.44,88.53-24.01,27.25-52.85,50.23-83.06,78.32v-90.69Z"/>
</svg>