<?xml version="1.0" encoding="UTF-8"?>
<svg id="Layer_1" data-name="Layer 1" xmlns="http://www.w3.org/2000/svg" viewBox="0 0 1480.16 1278.76">
  <defs>
    <style>
      .cls-1 {
        fill: #ecae48;
        stroke: #ebae48;
      }

      .cls-1, .cls-2 {
        stroke-miterlimit: 10;
        stroke-width: .25px;
      }

      .cls-2 {
        stroke: #195069;
      }

      .cls-2, .cls-3 {
        fill: #194f69;
      }

      .cls-3 {
        stroke-width: 0px;
      }
    </style>
  </defs>
  <g>
    <path class="cls-3" d="M267.37,1031.39h-22.05v66.9h-19.6v-66.9h-22.05v-18.87h63.71v18.87Z"/>
    <path class="cls-3" d="M317.61,1070.11h-9.31v28.18h-19.6v-85.77h34.31c16.3,0,29.41,13.11,29.41,29.41,0,10.54-6.37,20.09-15.81,24.87l18.26,31.49h-21.07l-16.17-28.18ZM308.29,1052.95h14.7c5.39,0,9.8-4.78,9.8-11.03s-4.41-11.03-9.8-11.03h-14.7v22.06Z"/>
    <path class="cls-3" d="M375.56,1070.6v-58.08h19.6v56.36c0,6.49,3.06,12.01,13.48,12.01s13.48-5.51,13.48-12.01v-56.36h19.6v58.08c0,18.38-14.21,29.41-33.08,29.41s-33.08-11.03-33.08-29.41Z"/>
    <path class="cls-3" d="M464.28,1078.81l16.91-9.8c3.06,7.11,8.33,11.89,18.01,11.89s11.64-3.68,11.64-6.98c0-5.27-4.9-7.35-17.77-10.9-12.74-3.55-25.24-9.68-25.24-26.1s13.97-26.1,28.79-26.1,25.12,6.74,31.37,19.36l-16.54,9.68c-2.94-6.13-6.98-9.92-14.83-9.92-6.13,0-9.19,3.06-9.19,6.49,0,3.92,2.08,6.62,15.44,10.66,12.99,3.92,27.57,8.45,27.57,26.59,0,16.54-13.23,26.34-31.86,26.34s-29.53-8.58-34.31-21.2Z"/>
    <path class="cls-3" d="M607.52,1031.39h-22.05v66.9h-19.6v-66.9h-22.05v-18.87h63.71v18.87Z"/>
    <path class="cls-1" d="M727.35,1063.98h-19.6v19.6h-17.15v-19.6h-19.6v-17.15h19.6v-19.6h17.15v19.6h19.6v17.15Z"/>
    <path class="cls-3" d="M792.66,1078.81l16.91-9.8c3.06,7.11,8.33,11.89,18.01,11.89s11.64-3.68,11.64-6.98c0-5.27-4.9-7.35-17.77-10.9-12.74-3.55-25.24-9.68-25.24-26.1s13.97-26.1,28.79-26.1,25.12,6.74,31.37,19.36l-16.54,9.68c-2.94-6.13-6.98-9.92-14.83-9.92-6.13,0-9.19,3.06-9.19,6.49,0,3.92,2.08,6.62,15.44,10.66,12.99,3.92,27.57,8.45,27.57,26.59,0,16.54-13.23,26.34-31.86,26.34s-29.53-8.58-34.31-21.2Z"/>
    <path class="cls-3" d="M930.39,1084.81h-31.86l-4.29,13.48h-21.44l29.16-85.77h25l29.16,85.77h-21.44l-4.29-13.48ZM924.51,1066.43l-10.05-31.49-10.05,31.49h20.09Z"/>
    <path class="cls-3" d="M995.82,1031.39v16.54h31.86v18.87h-31.86v31.49h-19.6v-85.77h52.07v18.87h-32.47Z"/>
    <path class="cls-3" d="M1106.59,1079.42v18.87h-53.91v-85.77h53.3v18.87h-33.7v14.21h30.63v18.62h-30.63v15.19h34.31Z"/>
    <path class="cls-3" d="M1187.95,1031.39h-22.05v66.9h-19.6v-66.9h-22.05v-18.87h63.71v18.87Z"/>
    <path class="cls-3" d="M1250.31,1065.33v32.96h-19.6v-32.96l-28.79-52.81h22.3l16.3,33.08,16.3-33.08h22.3l-28.79,52.81Z"/>
    <path class="cls-3" d="M239.14,1144.54v16.54h32.54v18.87h-32.54v31.49h-20.02v-85.77h53.19v18.87h-33.17Z"/>
    <path class="cls-3" d="M311.73,1168.55c0-25.24,20.4-44.6,45.56-44.6s45.55,19.36,45.55,44.6-20.4,44.6-45.55,44.6-45.56-19.36-45.56-44.6ZM382.82,1168.55c0-15.32-11.26-25.49-25.53-25.49s-25.53,10.17-25.53,25.49,11.26,25.49,25.53,25.49,25.53-10.17,25.53-25.49Z"/>
    <path class="cls-3" d="M444.14,1183.74v-58.08h20.02v56.36c0,6.49,3.13,12.01,13.77,12.01s13.77-5.51,13.77-12.01v-56.36h20.02v58.08c0,18.38-14.52,29.41-33.79,29.41s-33.79-11.03-33.79-29.41Z"/>
    <path class="cls-3" d="M626.24,1125.67v85.77h-15.02l-33.79-46.56v46.56h-20.02v-85.77h15.02l33.79,46.56v-46.56h20.02Z"/>
    <path class="cls-3" d="M750.14,1168.55c0,24.26-18.4,42.88-42.55,42.88h-35.04v-85.77h35.04c24.15,0,42.55,18.62,42.55,42.88ZM730.87,1168.55c0-14.7-9.51-24.02-23.28-24.02h-15.02v48.03h15.02c13.77,0,23.28-9.31,23.28-24.02Z"/>
    <path class="cls-3" d="M840.88,1197.96h-32.54l-4.38,13.48h-21.9l29.79-85.77h25.53l29.79,85.77h-21.9l-4.38-13.48ZM834.87,1179.58l-10.26-31.49-10.26,31.49h20.53Z"/>
    <path class="cls-3" d="M958.52,1144.54h-22.53v66.9h-20.02v-66.9h-22.53v-18.87h65.08v18.87Z"/>
    <path class="cls-3" d="M1018.59,1125.67v85.77h-20.02v-85.77h20.02Z"/>
    <path class="cls-3" d="M1061.15,1168.55c0-25.24,20.4-44.6,45.56-44.6s45.55,19.36,45.55,44.6-20.4,44.6-45.55,44.6-45.56-19.36-45.56-44.6ZM1132.23,1168.55c0-15.32-11.26-25.49-25.53-25.49s-25.53,10.17-25.53,25.49,11.26,25.49,25.53,25.49,25.53-10.17,25.53-25.49Z"/>
    <path class="cls-3" d="M1263.64,1125.67v85.77h-15.02l-33.79-46.56v46.56h-20.02v-85.77h15.02l33.79,46.56v-46.56h20.02Z"/>
  </g>
  <g>
    <path class="cls-2" d="M650.8,793.09h180.32c-53.86,50.06-103.16,105.74-160.12,152-49.26,40.01-118.75,30.72-161.67-13.19-43.36-44.35-51.85-113.76-9.91-161.36,43.75-49.66,96.32-91.55,151.39-142.75v165.3Z"/>
    <path class="cls-1" d="M469.84,436.9h180.32c-53.86-50.06-103.16-105.74-160.12-152-49.26-40.01-118.75-30.72-161.67,13.19-43.36,44.35-51.85,113.76-9.91,161.36,43.75,49.66,96.32,91.55,151.39,142.75v-165.3Z"/>
    <path class="cls-1" d="M1012.92,605.66h-180.32c53.86,50.06,103.16,105.74,160.12,152,49.26,40.01,118.75,30.72,161.67-13.19,43.36-44.35,51.85-113.76,9.91-161.36-43.75-49.66-96.32-91.55-151.39-142.75v165.3Z"/>
    <path class="cls-2" d="M830.66,259.36h-180.32c53.86-50.06,103.16-105.74,160.12-152,49.26-40.01,118.75-30.72,161.67,13.19,43.36,44.35,51.85,113.76,9.91,161.36-43.75,49.66-96.32,91.55-151.39,142.75v-165.3Z"/>
  </g>
</svg>