<?xml version="1.0" encoding="UTF-8"?>
<svg id="Layer_1" data-name="Layer 1" xmlns="http://www.w3.org/2000/svg" viewBox="0 0 1480.16 1278.76">
  <defs>
    <style>
      .cls-1 {
        fill: #ecae48;
        stroke: #ebae48;
      }

      .cls-1, .cls-2 {
        stroke-miterlimit: 10;
        stroke-width: .25px;
      }

      .cls-2 {
        fill: #194f69;
        stroke: #195069;
      }
    </style>
  </defs>
  <path class="cls-2" d="M615.33,990.51h237.17c-70.85,65.85-135.69,139.08-210.6,199.92-64.8,52.62-156.19,40.4-212.65-17.34-57.03-58.33-68.19-149.63-13.03-212.23,57.55-65.32,126.69-120.42,199.11-187.76v217.42Z"/>
  <path class="cls-1" d="M377.31,522.01h237.17c-70.85-65.85-135.69-139.08-210.6-199.92-64.8-52.62-156.19-40.4-212.65,17.34-57.03,58.33-68.19,149.63-13.03,212.23,57.55,65.32,126.69,120.42,199.11,187.76v-217.42Z"/>
  <path class="cls-1" d="M1091.62,743.97h-237.17c70.85,65.85,135.69,139.08,210.6,199.92,64.8,52.62,156.19,40.4,212.65-17.34,57.03-58.33,68.19-149.63,13.03-212.23-57.55-65.32-126.69-120.42-199.11-187.76v217.42Z"/>
  <path class="cls-2" d="M851.89,288.5h-237.17c70.85-65.85,135.69-139.08,210.6-199.92,64.8-52.62,156.19-40.4,212.65,17.34,57.03,58.33,68.19,149.63,13.03,212.23-57.55,65.32-126.69,120.42-199.11,187.76v-217.42Z"/>
</svg>